<svg xmlns="http://www.w3.org/2000/svg" viewBox="0 0 1080 1080"><defs><style>.cls-1{fill:#d5edee;}.cls-2{fill:#f5ccac;}.cls-3{fill:#dcb499;}.cls-4,.cls-5{fill:#bc9479;}.cls-4{opacity:0.7;}.cls-5{opacity:0.93;}.cls-6{fill:#2b353b;}.cls-7{fill:#394950;}.cls-8{fill:#626d83;}.cls-9{fill:#231f20;}.cls-10{fill:#f2e1d7;}.cls-11{fill:#333;}.cls-12,.cls-15,.cls-16{fill:none;}.cls-12{stroke:#231f20;stroke-linecap:round;stroke-width:0.25px;}.cls-12,.cls-16{stroke-linejoin:round;}.cls-13{fill:#4c4c4c;}.cls-14{fill:#212020;}.cls-15,.cls-16{stroke:#3f3f3f;stroke-width:5px;}.cls-15{stroke-miterlimit:10;}</style></defs><g id="ID"><path class="cls-1" d="M38.36.61h981.92a61.49,61.49,0,0,1,61.49,61.49V1044a36.58,36.58,0,0,1-36.58,36.58H38.36A36.58,36.58,0,0,1,1.78,1044V37.19A36.58,36.58,0,0,1,38.36.61Z"/><g id="person"><path class="cls-2" d="M462.21,615s-5.13,105.8,0,135.78c17.69,103.18,172.31,37,167,6.28-1.69-9.78-8.74-97.41-10.11-108.44L613.41,603Z"/><polygon class="cls-3" points="615.78 622.06 625.04 709.23 604.26 723.6 593.49 635.76 615.78 622.06"/><polygon class="cls-4" points="458.18 715.63 480.26 730.3 483.1 641.28 461.71 626.42 458.18 715.63"/><polygon class="cls-3" points="443.33 714.8 459.14 709.23 480.26 730.3 448.53 739.09 443.33 714.8"/><polygon class="cls-3" points="604.26 723.6 628.19 740.59 636.67 712.54 625.04 709.23 604.26 723.6"/><path class="cls-5" d="M461.54,630.79,458.71,697s116.15,7.69,158.94-57.31L614,609.15Z"/><path class="cls-6" d="M884.36,824.62c-9.43-8.73-22.15-16.89-36.74-24.63h0l-.1,0c-23.21-12.3-51.22-23.49-78.74-34-10.84-5-22.66-10.38-36.38-16.21-36.72-15.61-88.62-55.44-97.06-54.27a6.92,6.92,0,0,0-3.77,1.75,8.37,8.37,0,0,0-1.47,1.84,13.06,13.06,0,0,0-1.13,2.57c-.34,1.06-.83,2.54-1.39,4.18-.56.18-1,.83-1.2,2.12l-.39,2.25c-1.07,2.82-2.36,6-4,9.39-9.83,20.63-31,49.37-75.11,48.37-51-1.15-76.73-20.62-87.81-56a127.71,127.71,0,0,1-3.67-14.81c-.91-4.86-58.53,31.63-107.91,52.62-13.72,5.83-25.54,11.19-36.38,16.21-27.52,10.55-55.53,21.74-78.74,34l-.1,0h0c-14.59,7.74-27.31,15.9-36.74,24.63C149.3,867.5,125,977,104.3,1080H975.7C955,977,930.7,867.5,884.36,824.62Z"/><polygon class="cls-7" points="454.44 689.14 342.88 839.58 464.73 1080 497.6 1080 454.44 689.14"/><polygon class="cls-7" points="631.36 689.14 742.92 839.58 621.08 1080 588.2 1080 631.36 689.14"/><path class="cls-8" d="M454.44,689.14s17.34,78.54,91.22,71.8,85.7-71.8,85.7-71.8L588.2,1080H497.6Z"/><g id="id_face" data-name="id face"><path class="cls-2" d="M391.71,481.64l10.93,79.06s-12,4.51-26.68-2.48c-29-20.88-37.14-71.27-38.69-91.35,18.61-42.22,47.2,2.4,53.32,12.8.16.29.28.54.4.75"/><path class="cls-2" d="M392.89,562.63a39.8,39.8,0,0,1-17.14-3.93c-32.14-23.12-38.11-80.52-39-91.79a.58.58,0,0,1,.05-.26c5.09-11.55,11.39-17.64,18.74-18.11l.92,0c15.15,0,30.21,23.54,34.53,30.88l.22.41a3.76,3.76,0,0,0,.18.35c.24.37.44.72.56.93s.13.23.18.33a.54.54,0,0,1-.22.7.48.48,0,0,1-.67-.23,1.17,1.17,0,0,0-.13-.24c-.12-.23-.32-.56-.55-.93l-.23-.42-.19-.36c-4.32-7.35-19.6-31.28-34.54-30.35-6.93.45-12.94,6.3-17.85,17.38.9,11.52,6.9,68.12,38.47,90.83,14.26,6.76,26.12,2.46,26.24,2.42a.48.48,0,0,1,.63.32.54.54,0,0,1-.3.67A31.61,31.61,0,0,1,392.89,562.63Z"/><path class="cls-9" d="M457.5,538.7a50.06,50.06,0,0,0,37.78-17.12c9.16-10.71,13.47-25.63,12.36-40-1.19-15.48-6.64-23.24-19.74-29.09-22.17-9.9-55.12-5.2-72.65,12.86-3.4,3.5-6.47,7.44-10.43,10.2s-9.19,4.16-13.48,2c9.91,2.25,18.17-7.37,25.7-14.56,15.62-14.9,38.31-22.14,58.49-15.9,14.42,4.45,29.09,15.36,31.84,31.6a52.61,52.61,0,0,1-28.57,56,51.16,51.16,0,0,1-51.5-4.36c-14.94-10.63-24.06-29.83-23.21-48.87-.35,20.69,11,41.12,28.29,50.8A50.59,50.59,0,0,0,457.5,538.7Z"/><path class="cls-9" d="M674.64,550.58h0a.52.52,0,0,1-.47-.55c.88-24.42,8.67-65.62,9.76-71.33l-27.22,1.2h0a.52.52,0,0,1,0-1l27.85-1.23a.46.46,0,0,1,.4.18.56.56,0,0,1,.11.45c-.09.45-8.93,45.76-9.87,71.81A.52.52,0,0,1,674.64,550.58Z"/><path class="cls-10" d="M727.83,452c-5.79-.65-9.09-1.42-14.59-.37l-.08,0C705.44,455,699.48,461,695.59,466l.13-.07.08,0a29.86,29.86,0,0,1,15.61-2.44c32,9.56,6.31,60.5-6.23,81.61,5.43-1,10.29-3,12.76-6.76C725.6,526.77,764.91,463,727.83,452Z"/><path class="cls-2" d="M714.87,543.07c-8.13,11.86-40.23,7-40.23,7s-.06,9.24-5.12,28.5c-10.36,51.9-64.15,79.77-64.15,79.77a207.4,207.4,0,0,1-23,9.18c-13.13,4.33-30.35,8.67-47,8.67a55.11,55.11,0,0,1-18.13-1.72c-19.21-4.78-38.67-17.92-54.63-29.72-1.75-1.27-3.43-2.61-5.06-3.89-6-4.46-11.32-8.6-15.84-11.79a40.17,40.17,0,0,1-6.39-5.74,38.9,38.9,0,0,0,4.7,4c2.53,1.78,5.3,3.89,8.25,6.12,21.87,16.51,55.42,43.48,85.41,41h.19c3.31,0-13.38-4-16.45-5.36-22.95-10.71-27.16-30.35-41-40.11-19.87-14-40.05-55.28-41.8-60-.06-.25-5.78-13.39-5.84-13.64l-4.22-80.6v-.32c-.12-2.8-8.65-51-6.72-51s7.14-14.35,7.51-28.76c.42-14,16.44-11.54,28.73-9.89a3,3,0,0,1,1.26.51c12.65,8.8,28.67-23.52,66-37.3,4-1.46,11.86-4,19.69-6.31a3.24,3.24,0,0,0,1.93-4.59,176.32,176.32,0,0,1,29.57,3.63l38.73,30.67s19.7,30.35,34,16.84,25.9,2,25.9,2a126.27,126.27,0,0,0,12.76,29.07c8.68,14.35,2,54.65,1.63,56.88.66-1.21,9.4-16.45,24.21-22.76l.12-.07a18.06,18.06,0,0,1,1.75-.64,32.44,32.44,0,0,1,14.88-1.84C766,462.35,723,531.21,714.87,543.07Z"/><path class="cls-3" d="M685.85,471.85s-11.27,87.48-16.33,106.74c-10.36,51.9-64.15,79.77-64.15,79.77a207.4,207.4,0,0,1-23,9.18l6.93-3.38s16.8-4.15,39.87-33.48c7.19-9.17,26.08-34.95,31.43-65.15,12.3-69.48,19.92-153.85,19.92-153.85l10,16.75Z"/><path class="cls-3" d="M390.3,478.08l-.43-3.41s-2.31-50.77-.36-50.77,7-25.81,7.32-40.16S433.61,362.86,446,364.5c21.47-4.11,22.58-17,55.07-26.86,13.91-4.21,51.18-3.31,60.75.62.75,1.69-18.67,2.83-20.82,3.47-7.84,2.27-15.71,4.84-19.69,6.31-37.3,13.72-53.28,46-65.93,37.3a3.62,3.62,0,0,0-1.31-.55c-12.29-1.64-28.31-4.08-28.71,9.94-.67,26.64-.76,53.1-.76,79.73v.29l4.93,37.85c2.24,17.18,2.63,36.46,8.27,52.81,9.64,28,26.28,50.68,47.1,70.32,13.75,13,28.18,27.44,45.47,35.48,3,1.39,10.33,4.55,7,4.55l-5.86-.42c-34.08,2.87-70.59-33.21-91.47-48a33.06,33.06,0,0,1-4.69-4c-18.37-19.53-34.28-62.64-34.28-62.64Z"/><path class="cls-3" d="M401.08,560.71s15.91,43.11,34.28,62.64c-18.05-17.55-34.2-59.69-35.83-64a5.43,5.43,0,0,1-.16-.76l-11.13-85.5a.88.88,0,0,1,0-.3v-.21l.12.51a28.61,28.61,0,0,0,2,5Z"/><path class="cls-11" d="M742.63,354.94c2,36.88-21.27,43.41-21.27,43.41s-9.31,24.16-9.67,49.16c0,2.07,0,3.79-.08,5.27-.59.21-1.19.42-1.75.67l-.08,0c-14.83,6.32-23.58,21.56-24.25,22.73.36-2.18,7.08-42.47-1.59-56.83a126.55,126.55,0,0,1-12.77-29.08s-11.61-15.58-25.93-2.07-34-16.79-34-16.79l-38.69-30.69a176.72,176.72,0,0,0-29.58-3.66,3,3,0,0,0-2.63-1.73c-12.45-.42-27.08.38-40.68,4.46-31.93,9.68-42.19,32.37-54.68,23.45a2.67,2.67,0,0,0-1.39-.59c-13-1.26-48,5.3-48.39,19.32-.36,14.36-5.41,40.16-7.32,40.16s.16,46,.36,50.43c-1.2-4-4.18-11.78-11.18-26.73C358.45,411.48,367,357.39,367,357.39s-8.51-70,17.78-101.58,78.18-72.91,113-70c0,0,43.35-8.63,49.55-17.22,8.11-1.22,35.59,15.58,39.85,20.88s54.16,10.65,78.53,41,29.79,29.89,40.65,48.33S740.68,318.07,742.63,354.94Z"/><path class="cls-12" d="M392,481.19a.12.12,0,0,0,0-.08,2.09,2.09,0,0,1-.15-.3c-.12-.21-.32-.54-.56-.92-.12-.21-.24-.47-.4-.76s-.36-.67-.56-1.05a28.61,28.61,0,0,1-2-5l-.12-.51c-1.2-4-4.18-11.78-11.18-26.73C358.45,411.48,367,357.39,367,357.39s-8.51-70,17.78-101.58,78.18-72.91,113-70c0,0,43.35-8.63,49.55-17.22,8.11-1.22,35.59,15.58,39.85,20.88s54.16,10.65,78.53,41,29.79,29.89,40.65,48.33,34.39,39.32,36.34,76.19-21.27,43.41-21.27,43.41-9.31,24.16-9.67,49.16c0,2.07,0,3.79-.08,5.27V453"/><path class="cls-3" d="M734.88,454.48c.32.3,4.4,4.43,4.69,4.76,2.6,3,3.32,8.13,3.71,12.2.81,8.5-2.1,17.13-4.29,25.35a107.17,107.17,0,0,1-18,37.68c-2.84,3.71-5.74,9.84-9.78,12.45-3.81,2.46,4-10,4.69-11.32,4.54-8.53,7-13,10.26-20.63,4.61-10.74,9.5-22.31,11.42-34,.49-2.92-.48-11.7-1.61-14.42-1.94-4.69-4.74-9.07-9.52-9.93-5.31-.94-9.81-.64-14.51,1.71-2.42,1.21-5.42,2.95-9.08,4.65-2.81,1.31-10.46,7-13.28,8.43,4.64-7.57,10.27-10.79,16.6-15.51,6.83-5.09,9.54-4.93,17.27-5.48C726.36,450.24,732.66,452.41,734.88,454.48Z"/><path class="cls-13" d="M714.32,406.88s-15.32,28.29-15.92,53l12.34-7.21c0-1.51-.17-3.15-.13-5.3.36-24.61,11.71-49.81,12-50.62A75,75,0,0,0,714.32,406.88Z"/><path class="cls-13" d="M515.12,182.91c7.08-4,47,3,65.52,20.2,9.67,9,54.62,12.25,79.44,42.6s27.46,23.1,38.51,41.56,35,39.37,37,76.29c1,19-5.67,28.24-11.5,34.4.73-.21,18.67-6.14,16.71-42.48-2-36.92-22.27-53.31-33.28-71.77s-16-19.7-40.86-50-74.08-37.81-78.41-43.16S556,168.37,547.68,169.59Z"/><path class="cls-2" d="M400.44,562c-3.73,0-17.27,1.76-22.15,0a33.41,33.41,0,0,1-4.69-1.85c-.12-.06-.18-.13-.3-.19-25.48-18.36-34.76-57.77-38-79.58-.9-6.12-1.33-10.84-1.57-13.32a3.2,3.2,0,0,1,.18-1.09c5.36-12.11,12.11-18.49,20-19,15.84-1,31,21.75,36.8,31.56l.42.83c.25.32.43.64.61.9s.12.32.18.44a2.16,2.16,0,0,1-.85,2.81,1.89,1.89,0,0,1-2.65-1,9.27,9.27,0,0,1-.6-.95c-.12-.26-.24-.39-.3-.58l-.18-.32c-4.22-7.14-19.09-30.54-33.19-29.58-6.26.44-11.74,5.86-16.38,16.13.24,3.06.78,8.73,2,15.88,3.55,21.55,12.71,56.62,35.65,73.26.49.25,1,.45,1.45.64C389.92,562.58,406.58,562,400.44,562Z"/><path class="cls-14" d="M405.68,339c17.4,18.34,61.42,17.1,57.47,20.36-1.57,1.28-10.69,6.08-18.37,7.85-14.92,3.44-39.77,3-45.67,19.09-2.72,7.42-4.91,26.43-7.19,34-3.68,12.18.62,46.46,0,59.31-3.22-.78-14.17-25.22-15.47-28.46q-5.94-14.82-10.94-30.09c-2.57-7.83-3.5-15.06-3.91-24.42-.19-4.4.12-8.36-.06-14-.15-5.11-1-7.54,0-14.19,3.74-25.74-.87-53.12,3.64-79.19.8-4.67,23.32-46.93,31.16-44.44,1.26.4-9.28,9.69-8.22,12.29,1.24,3.05,17.76,16.31,17.44,19.79-.58,6.25-3.11,9.7-3.1,16C402.47,305.41,397.31,330.16,405.68,339Z"/><path class="cls-3" d="M394.87,562.43a45.47,45.47,0,0,0-4.67.2c-1.63,0-3.31.07-4.95,0a31.58,31.58,0,0,1-11.65-2.46c-.12-.06-.18-.13-.3-.19-25.48-18.36-34.76-57.77-38-79.58a17.22,17.22,0,0,0,3,2,14.92,14.92,0,0,0,1.45.71,79.47,79.47,0,0,1,11.92,6.75c6,4.34,9.7,9.63,9.76,18.3a84.47,84.47,0,0,0,5.85,28.56,138.23,138.23,0,0,0,6.07,13.69c1.56,3.08,3.38,5.49,6.46,7,2.53,1.21,5.33,1.46,8,2.15A35,35,0,0,1,394.87,562.43Z"/><path class="cls-15" d="M554.12,478.55c.58,9.59.84,19.36,3.34,28.67,2.31,8.63,8.71,14.22,15.19,19.53,14,11.45,32.13,13.37,48.75,8.29,8.47-2.56,17-6.1,23.19-12.75,5.88-6.23,9.18-14.74,11.53-23.2,1.71-6.19,3-12.75,1.51-19-1.59-6.44-6-11.71-10.86-15.92a63.13,63.13,0,0,0-44.34-15.57c-17.21.88-35.6,9.29-45.93,24.37Z"/><path class="cls-15" d="M508.47,483.9c0,7.7.47,15.82-2.79,23-4.81,10.65-12.72,19.83-22.58,25.43-12,6.77-26.49,7.41-39.69,4.75-12.13-2.48-25.33-8.08-31.57-20.2-5.61-10.91-5.29-24-6.76-35.95,0-.26,18.09-37,51.37-34.69,12.09.8,24.5,3.37,35.36,9.26,4.41,2.4,8.82,5.22,12.16,9.18C508.35,469.79,508.51,477.33,508.47,483.9Z"/><line class="cls-15" x1="656.65" y1="478.86" x2="685.65" y2="477.95"/><line class="cls-16" x1="405.04" y1="480.65" x2="389.6" y2="480.33"/><path class="cls-15" d="M508.74,481.81c13.18-10,32.09-9.34,45.53-.3"/><path class="cls-13" d="M485.06,231.66c-10.27-.53-50,6.79-58,61.15,0,0-3.31-38.71,30.48-57.39,20.55-11.35,27.81-7.32,27.48-3.76"/><path class="cls-13" d="M657.62,276a50.73,50.73,0,0,1,6.07,8.25c1.94,3.28,3.54,6.78,5.2,10.24.85,1.76,1.71,3.53,2.64,5.24.65,1.2,1.8,4.08,3,4.56.27-1.24-.23-3.44-.46-4.75-2.9-16.84-14.32-31.26-27.89-39.25A52.28,52.28,0,0,0,618.75,253c-3.86.08-3.12,3.53-.17,4.78,2.16.91,4.73,1.05,7,1.4a59.16,59.16,0,0,1,7.77,1.7A52.23,52.23,0,0,1,657.62,276Z"/><path class="cls-13" d="M546.23,315.32s1-11.43-34-11.85-47.81,15.59-47.81,15.59S506.23,297.39,546.23,315.32Z"/><path class="cls-13" d="M564.46,314.54s3.18-12.2,37.93-8.47S645.33,328,645.33,328,605.73,301.42,564.46,314.54Z"/></g></g></g></svg>